<svg width="340" height="481" viewBox="0 0 340 481" fill="none" xmlns="http://www.w3.org/2000/svg">
<circle cx="176" cy="164" r="164" fill="#03954C"/>
<g filter="url(#filter0_d_46_499)">
<path fill-rule="evenodd" clip-rule="evenodd" d="M308 164C308 236.902 248.902 296 176 296C111.711 296 58.156 250.04 46.3997 189.185C42.4343 187.332 38.7519 185.678 35.4318 184.243C45.2565 253.079 104.448 306 176 306C254.424 306 318 242.424 318 164C318 127.465 304.202 94.153 281.534 68.9898C278.977 71.1561 276.46 73.3422 273.98 75.5457C295.125 98.9527 308 129.973 308 164ZM34.0134 162.029C36.9602 163.174 40.3242 164.563 44.0174 166.167C44.0058 165.446 44 164.724 44 164C44 91.0984 103.098 32 176 32C207.652 32 236.703 43.1407 259.443 61.7148C261.946 59.4733 264.487 57.2481 267.066 55.0416C242.414 34.4156 210.657 22 176 22C98.2335 22 35.0678 84.5133 34.0134 162.029Z" fill="black"/>
</g>
<g filter="url(#filter1_bd_46_499)">
<path fill-rule="evenodd" clip-rule="evenodd" d="M283.889 45.3151C281.342 42.0828 276.671 41.5495 273.474 44.1537C202.775 101.751 160.101 175.261 135.689 218.127C117.411 203.82 95.2854 190.489 75.5511 179.953C53.3949 168.125 33.5637 159.456 24.996 156.881C21.0442 155.693 16.9453 158 15.8013 161.935C14.6618 165.854 16.8509 170.021 20.7851 171.203C27.9105 173.344 46.6964 181.445 68.6501 193.166C90.5008 204.831 114.788 219.713 133.049 235.147L139.796 240.85L144.19 233.148C144.995 231.736 145.822 230.283 146.671 228.792L146.705 228.731L146.725 228.697C170.841 186.326 212.663 112.884 282.747 55.7882C285.919 53.2041 286.418 48.5229 283.889 45.3151Z" fill="white"/>
</g>
<path d="M54.2341 398.71V408.915H40.3796V451H27.6423V408.915H13.7877V398.71H54.2341ZM85.3563 451.521C80.4402 451.521 75.9213 450.379 71.7997 448.095C67.7277 445.811 64.4751 442.633 62.0419 438.561C59.6583 434.439 58.4665 429.821 58.4665 424.706C58.4665 419.591 59.6583 414.998 62.0419 410.926C64.4751 406.854 67.7277 403.676 71.7997 401.392C75.9213 399.107 80.4402 397.965 85.3563 397.965C90.2725 397.965 94.7665 399.107 98.8385 401.392C102.96 403.676 106.188 406.854 108.522 410.926C110.905 414.998 112.097 419.591 112.097 424.706C112.097 429.821 110.905 434.439 108.522 438.561C106.138 442.633 102.91 445.811 98.8385 448.095C94.7665 450.379 90.2725 451.521 85.3563 451.521ZM85.3563 439.901C89.5276 439.901 92.8547 438.511 95.3376 435.73C97.8701 432.949 99.1364 429.275 99.1364 424.706C99.1364 420.088 97.8701 416.413 95.3376 413.682C92.8547 410.901 89.5276 409.511 85.3563 409.511C81.1354 409.511 77.7586 410.876 75.2261 413.608C72.7432 416.339 71.5017 420.038 71.5017 424.706C71.5017 429.324 72.7432 433.024 75.2261 435.805C77.7586 438.536 81.1354 439.901 85.3563 439.901ZM138.773 398.71C144.285 398.71 149.102 399.803 153.224 401.988C157.345 404.172 160.524 407.251 162.758 411.224C165.042 415.147 166.185 419.691 166.185 424.855C166.185 429.97 165.042 434.514 162.758 438.486C160.524 442.459 157.321 445.538 153.149 447.723C149.028 449.908 144.236 451 138.773 451H119.183V398.71H138.773ZM137.954 439.976C142.771 439.976 146.52 438.66 149.202 436.028C151.883 433.396 153.224 429.672 153.224 424.855C153.224 420.038 151.883 416.289 149.202 413.608C146.52 410.926 142.771 409.585 137.954 409.585H131.921V439.976H137.954ZM198.032 451.521C193.116 451.521 188.597 450.379 184.476 448.095C180.404 445.811 177.151 442.633 174.718 438.561C172.334 434.439 171.143 429.821 171.143 424.706C171.143 419.591 172.334 414.998 174.718 410.926C177.151 406.854 180.404 403.676 184.476 401.392C188.597 399.107 193.116 397.965 198.032 397.965C202.949 397.965 207.443 399.107 211.515 401.392C215.636 403.676 218.864 406.854 221.198 410.926C223.582 414.998 224.773 419.591 224.773 424.706C224.773 429.821 223.582 434.439 221.198 438.561C218.814 442.633 215.587 445.811 211.515 448.095C207.443 450.379 202.949 451.521 198.032 451.521ZM198.032 439.901C202.204 439.901 205.531 438.511 208.014 435.73C210.546 432.949 211.813 429.275 211.813 424.706C211.813 420.088 210.546 416.413 208.014 413.682C205.531 410.901 202.204 409.511 198.032 409.511C193.812 409.511 190.435 410.876 187.902 413.608C185.419 416.339 184.178 420.038 184.178 424.706C184.178 429.324 185.419 433.024 187.902 435.805C190.435 438.536 193.812 439.901 198.032 439.901ZM244.597 398.71V451H231.859V398.71H244.597ZM287.868 398.71V408.915H266.565V419.939H282.505V429.846H266.565V451H253.827V398.71H287.868ZM339.404 398.71L321.303 433.719V451H308.566V433.719L290.466 398.71H304.916L315.046 420.609L325.102 398.71H339.404Z" fill="white"/>
<defs>
<filter id="filter0_d_46_499" x="31.0134" y="20" width="299.987" height="300" filterUnits="userSpaceOnUse" color-interpolation-filters="sRGB">
<feFlood flood-opacity="0" result="BackgroundImageFix"/>
<feColorMatrix in="SourceAlpha" type="matrix" values="0 0 0 0 0 0 0 0 0 0 0 0 0 0 0 0 0 0 127 0" result="hardAlpha"/>
<feOffset dx="5" dy="6"/>
<feGaussianBlur stdDeviation="4"/>
<feComposite in2="hardAlpha" operator="out"/>
<feColorMatrix type="matrix" values="0 0 0 0 0 0 0 0 0 0 0 0 0 0 0 0 0 0 0.5 0"/>
<feBlend mode="normal" in2="BackgroundImageFix" result="effect1_dropShadow_46_499"/>
<feBlend mode="normal" in="SourceGraphic" in2="effect1_dropShadow_46_499" result="shape"/>
</filter>
<filter id="filter1_bd_46_499" x="0.500244" y="32.4998" width="300" height="228.35" filterUnits="userSpaceOnUse" color-interpolation-filters="sRGB">
<feFlood flood-opacity="0" result="BackgroundImageFix"/>
<feGaussianBlur in="BackgroundImageFix" stdDeviation="1.7"/>
<feComposite in2="SourceAlpha" operator="in" result="effect1_backgroundBlur_46_499"/>
<feColorMatrix in="SourceAlpha" type="matrix" values="0 0 0 0 0 0 0 0 0 0 0 0 0 0 0 0 0 0 127 0" result="hardAlpha"/>
<feOffset dy="5"/>
<feGaussianBlur stdDeviation="7.5"/>
<feComposite in2="hardAlpha" operator="out"/>
<feColorMatrix type="matrix" values="0 0 0 0 0 0 0 0 0 0 0 0 0 0 0 0 0 0 1 0"/>
<feBlend mode="normal" in2="effect1_backgroundBlur_46_499" result="effect2_dropShadow_46_499"/>
<feBlend mode="normal" in="SourceGraphic" in2="effect2_dropShadow_46_499" result="shape"/>
</filter>
</defs>
</svg>
